<svg xmlns="http://www.w3.org/2000/svg" viewBox="0 0 64 64" role="img" aria-label="Learning Hub">
  <defs>
    <linearGradient id="lh-bg" x1="0%" y1="0%" x2="100%" y2="100%">
      <stop offset="0%" stop-color="#7cc4ff"/>
      <stop offset="100%" stop-color="#9d7cff"/>
    </linearGradient>
    <linearGradient id="lh-accent" x1="0%" y1="0%" x2="100%" y2="100%">
      <stop offset="0%" stop-color="#ffffff"/>
      <stop offset="100%" stop-color="#d8e8ff"/>
    </linearGradient>
  </defs>
  <rect width="64" height="64" rx="14" fill="url(#lh-bg)"/>
  <path fill="url(#lh-accent)" d="M18 18h20a3 3 0 0 1 3 3v22a3 3 0 0 1-3 3H18a3 3 0 0 1-3-3V21a3 3 0 0 1 3-3z"/>
  <path fill="#7cc4ff" opacity="0.95" d="M23 24h10v2H23zm0 6h14v2H23zm0 6h12v2H23z"/>
  <path fill="#4ad6c0" d="M34 20l12 8-12 8V20z" opacity="0.95"/>
  <circle cx="48" cy="16" r="4" fill="#4ad6c0"/>
</svg>
